<?xml version="1.0" encoding="UTF-8"?><svg id="a" xmlns="http://www.w3.org/2000/svg" viewBox="0 0 300 300"><defs><style>.b{font-family:DIN-Bold, DIN;font-size:21.95px;font-weight:700;}.b,.c{fill:#eb2052;}.c,.d,.e{stroke-width:0px;}.d{fill:#231f20;}.e{fill:#fff;}</style></defs><rect class="d" width="300" height="300"/><rect class="e" x="198.36" y="118.15" width="47.5" height="53.28" transform="translate(92.74 -86.64) rotate(27.69)"/><path class="c" d="M185.8,151.66c0-17.1,0-34.19.01-51.29,0-1.1.05-2.24.31-3.3.83-3.36,3.81-5.74,7.28-6.03,2.21-.18,4.1.41,6.01,1.59,23.47,14.5,46.98,28.93,70.49,43.37,2.68,1.65,5.36,3.28,8.04,4.93,4.94,3.04,6.9,8.68,4.7,13.55-1.11,2.45-3.05,4.11-5.27,5.48-19.7,12.12-39.4,24.23-59.11,36.33-6.79,4.17-13.59,8.32-20.39,12.46-1.99,1.21-4.08,2.19-6.5,2.18-2.85-.02-4.79-1.78-5.32-4.95-.18-1.06-.24-2.15-.24-3.22-.01-17.03,0-34.07,0-51.1ZM220.71,131.72c-.42-.12-.7-.18-.97-.27-3.29-1.07-6.57-2.14-9.85-3.22-2.96-.97-5.33-.02-6.74,2.79-2.9,5.78-5.77,11.59-8.66,17.37-.66,1.32-.6,2.62.24,3.77.63.86,1.38,1.69,2.25,2.3,9.49,6.71,19.02,13.37,28.53,20.05,1.07.75,2.16.8,3.32.25,1.41-.67,2.35-1.8,3.09-3.14,4.73-8.52,9.46-17.04,14.19-25.56,1.64-2.96.54-5.83-2.68-6.88-4.85-1.59-9.7-3.16-14.55-4.75-1.45-.47-2.9-.97-4.52-1.5,4.28-2.8,8.39-5.48,12.57-8.22-.37-.54-.67-.99-1.01-1.49-4.47,2.91-8.85,5.77-13.37,8.72-.16-3.04-.31-5.89-.46-8.73-1.81-.04-1.83-.24-1.7,1.51.17,2.27.21,4.56.32,7Z"/><text class="b" transform="translate(205.47 157.61)"><tspan x="0" y="0">TV</tspan></text><path class="e" d="M34.38,176.12c-9.94,0-14.16-7.03-14.16-13.97v-24.19h-5.16v-9.28h5.16v-14.44h12.19v14.44h8.63v9.28h-8.63v23.44c0,2.81,1.31,4.41,4.22,4.41h4.41v10.32h-6.66Z"/><path class="e" d="M112.3,194.59c-7.5,0-12.66-1.5-17.72-6.38l7.6-7.69c2.72,2.63,5.44,3.75,9.57,3.75,7.31,0,9.85-5.16,9.85-10.13v-4.97c-3.19,3.56-6.85,4.88-11.63,4.88s-8.91-1.59-11.63-4.31c-4.59-4.59-4.97-10.88-4.97-19.41s.38-14.72,4.97-19.32c2.72-2.72,6.94-4.31,11.72-4.31,5.16,0,8.53,1.41,11.91,5.16v-4.59h11.82v47.08c0,11.72-8.35,20.26-21.47,20.26ZM113.52,137.67c-7.22,0-7.97,6.19-7.97,12.66s.75,12.75,7.97,12.75,8.06-6.28,8.06-12.75-.84-12.66-8.06-12.66Z"/><path class="e" d="M174.84,170.68c-3,3.19-7.97,6-15.19,6s-12.1-2.81-15.1-6c-4.41-4.59-5.53-10.13-5.53-19.04s1.13-14.35,5.53-18.94c3-3.19,7.88-6,15.1-6s12.19,2.81,15.19,6c4.41,4.6,5.53,10.13,5.53,18.94s-1.13,14.44-5.53,19.04ZM165.37,139.83c-1.41-1.41-3.28-2.16-5.72-2.16s-4.22.75-5.63,2.16c-2.53,2.53-2.81,6.75-2.81,11.82s.28,9.38,2.81,11.91c1.41,1.41,3.19,2.16,5.63,2.16s4.31-.75,5.72-2.16c2.53-2.53,2.81-6.85,2.81-11.91s-.28-9.28-2.81-11.82Z"/><polygon class="e" points="87.2 186.7 48.06 186.7 49.59 181.09 88.74 181.09 87.2 186.7"/><path class="e" d="M75.42,127.93c.24,1.77.31,21.58.31,23.71,0,5.06-.28,9.38-2.81,11.91-1.41,1.41-3.28,2.16-5.72,2.16s-4.22-.75-5.63-2.16c-2.53-2.53-2.81-6.85-2.81-11.91,0-2.13.06-21.94.31-23.71h-12.27c-.16,1.78-.23,21.57-.23,23.71,0,8.91,1.13,14.44,5.53,19.04,3,3.19,7.88,6,15.1,6s12.19-2.81,15.19-6c4.41-4.59,5.53-10.13,5.53-19.04,0-2.13-.07-21.93-.23-23.71h-12.27Z"/></svg>